<svg width="110" height="31" viewBox="0 0 110 31" fill="none" xmlns="http://www.w3.org/2000/svg">
<path d="M0.0976016 29.9864C10.4847 16.0821 26.2248 7.13471 43.3285 4.36629C52.2761 2.90894 61.3937 2.94656 70.4072 3.80129C75.6223 4.29908 81.2416 4.8175 86.7579 5.71327C86.1528 5.26548 85.5615 4.82204 85.011 4.34584C82.8979 2.5449 85.4524 -0.55371 87.732 0.0855203C91.2022 1.05267 94.3862 3.1744 97.553 4.86584C101.031 6.73066 104.527 8.586 108.018 10.4552C110.155 11.5961 109.572 15.5407 107.08 15.8212C99.6222 16.6532 92.5734 18.5089 85.7034 21.5891C83.9325 22.3842 82.7868 20.0217 84.3327 18.974C87.415 16.8604 90.6739 15.1057 94.053 13.6467C87.3186 12.4143 80.6329 10.3474 73.8742 9.28953C65.5042 7.98414 56.9582 7.33676 48.4863 7.95695C29.9838 9.31539 13.9217 17.7369 0.881011 30.6419C0.471314 31.0748 -0.265351 30.4644 0.0976016 29.9864Z" fill="#8D8D90"/>
</svg>
